<svg width="211.000000" height="68.000000" viewBox="0 0 211 68" fill="none" xmlns="http://www.w3.org/2000/svg" xmlns:xlink="http://www.w3.org/1999/xlink">
	<desc>
			Created with Pixso.
	</desc>
	<defs/>
	<path id="Vector" d="M57.86 43.28C53.78 43.28 50.48 46.62 50.48 50.74C50.48 54.86 53.78 58.2 57.86 58.2C61.93 58.2 65.24 54.86 65.24 50.74C65.24 46.62 61.93 43.28 57.86 43.28ZM57.86 54.74C55.67 54.74 53.9 52.95 53.9 50.74C53.9 48.54 55.67 46.75 57.86 46.75C60.04 46.75 61.81 48.54 61.81 50.74C61.81 52.95 60.04 54.74 57.86 54.74Z" fill="#47CFA9" fill-opacity="1.000000" fill-rule="nonzero"/>
	<path id="Vector" d="M61.81 50.74C61.81 52.95 60.04 54.74 57.86 54.74C55.67 54.74 53.9 52.95 53.9 50.74C53.9 48.53 55.67 46.75 57.86 46.75C60.04 46.75 61.81 48.53 61.81 50.74Z" fill="#FFFFFF" fill-opacity="1.000000" fill-rule="evenodd"/>
	<path id="Vector" d="M12.25 43.28C8.18 43.28 4.88 46.62 4.88 50.74C4.88 54.86 8.18 58.2 12.25 58.2C16.33 58.2 19.63 54.86 19.63 50.74C19.63 46.62 16.33 43.28 12.25 43.28ZM12.25 54.74C10.07 54.74 8.3 52.95 8.3 50.74C8.3 48.54 10.07 46.75 12.25 46.75C14.44 46.75 16.21 48.54 16.21 50.74C16.21 52.95 14.44 54.74 12.25 54.74Z" fill="#47CFA9" fill-opacity="1.000000" fill-rule="nonzero"/>
	<path id="Vector" d="M16.21 50.74C16.21 52.95 14.44 54.74 12.25 54.74C10.07 54.74 8.3 52.95 8.3 50.74C8.3 48.53 10.07 46.75 12.25 46.75C14.44 46.75 16.21 48.53 16.21 50.74Z" fill="#FFFFFF" fill-opacity="1.000000" fill-rule="evenodd"/>
	<path id="Vector" d="M2.18 39.81C2.18 39.82 2.18 39.83 2.17 39.84C2.19 39.77 2.22 39.71 2.24 39.64C2.22 39.7 2.2 39.75 2.18 39.81Z" fill="#47CFA9" fill-opacity="1.000000" fill-rule="nonzero"/>
	<path id="Vector" d="M69.83 41.97C69.81 41.77 69.78 41.55 69.63 41.4C69.52 41.29 68.14 40.92 67.61 40.78C67.61 40.78 67.41 39.2 66.98 36.93C66.97 36.92 66.97 36.9 66.97 36.89C66.92 36.66 66.88 36.43 66.83 36.18C66.83 36.18 66.83 36.18 66.83 36.17C65.88 31.5 64 24.6 60.8 22.03C60.8 22.03 48.33 19.15 31.91 20.2C30.14 20.31 16.63 32.78 16.21 33.21C16.21 33.21 11.64 33.15 10.02 33.62C8.38 34.11 6.52 34.95 5.01 36.1L5 36.1C4.96 36.13 4.92 36.16 4.89 36.19C4.8 36.26 4.72 36.33 4.64 36.39C4.55 36.46 4.47 36.53 4.39 36.61C4.31 36.67 4.23 36.74 4.16 36.81C4.08 36.89 4 36.96 3.92 37.04C3.85 37.11 3.78 37.18 3.71 37.26C3.64 37.34 3.57 37.42 3.5 37.5C3.43 37.58 3.37 37.65 3.31 37.73C3.24 37.81 3.17 37.9 3.11 37.99C3.05 38.07 3 38.14 2.95 38.22C2.88 38.31 2.83 38.41 2.77 38.5C2.72 38.58 2.68 38.65 2.63 38.73C2.58 38.83 2.53 38.94 2.48 39.05C2.44 39.12 2.41 39.19 2.38 39.27C2.33 39.39 2.28 39.51 2.24 39.64C2.22 39.71 2.19 39.77 2.17 39.84L2.17 39.84C1.45 42.28 1.41 43.78 0.33 43.82C-1.16 43.89 2.78 52.96 2.78 52.96L3.75 52.75C3.65 51.13 3.63 49.5 3.97 47.91C4.8 43.98 8.58 41.54 12.37 41.51C15.11 41.48 18.25 42.59 19.89 44.91C21.37 47 21.24 49.58 21.29 52.04C21.29 52.04 21.33 53.27 21.33 53.27C29.56 53.27 48.59 53.27 48.59 53.27C48.6 52.42 48.59 51.57 48.62 50.72C48.68 49.02 48.81 47.35 49.74 45.89C52.1 42.19 57.52 40.96 61.36 42.89C63.76 44.1 65.61 46.46 66.1 49.12C66.21 49.68 66.52 51.63 66.05 52.08C68.76 49.55 70.21 45.69 69.83 41.97ZM45.73 33.66L22.1 33.66C21.77 33.1 33.22 23.31 35 22.81C36.79 22.32 47.82 22.57 47.82 22.57L45.73 33.66ZM48.05 33.66L49.72 22.66C52.91 22.78 55.64 24.99 56.44 28.11C57.03 30.43 57.65 32.83 57.86 33.66L48.05 33.66Z" fill="#47CFA9" fill-opacity="1.000000" fill-rule="nonzero"/>
	<path id="Vector" d="M49.72 22.66L48.05 33.66L57.86 33.66C57.65 32.83 57.03 30.43 56.44 28.11C55.64 24.99 52.91 22.78 49.72 22.66Z" fill="#FFFFFF" fill-opacity="1.000000" fill-rule="nonzero"/>
	<path id="Vector" d="M35 22.82C33.22 23.31 21.77 33.1 22.1 33.66L45.73 33.66L47.82 22.57C47.82 22.57 36.79 22.32 35 22.82Z" fill="#FFFFFF" fill-opacity="1.000000" fill-rule="nonzero"/>
	<path id="Vector" d="M79.5 7.72L79.5 " stroke="#131313" stroke-opacity="1.000000" stroke-width="3.000000"/>
	<path id="assistance" d="M130.39 46.57C130 46.57 129.67 46.44 129.39 46.17C129.11 45.9 128.97 45.58 128.97 45.21C128.97 44.83 129.11 44.51 129.39 44.25C129.67 43.98 130 43.85 130.39 43.85Q130.69 43.85 130.94 43.96Q131.18 44.06 131.38 44.25C131.66 44.51 131.8 44.83 131.8 45.21C131.8 45.58 131.66 45.9 131.38 46.17Q131.18 46.36 130.94 46.46Q130.69 46.57 130.39 46.57ZM148.26 45.62L150.24 45.62L150.24 48.75L153 48.75L153 50.45L150.24 50.45L150.24 58.07C150.24 58.64 150.33 59.06 150.49 59.35C150.66 59.62 150.87 59.81 151.13 59.91C151.39 60 151.67 60.04 151.96 60.04C152.18 60.04 152.36 60.03 152.5 60.01L152.84 59.94L153.24 61.75C153.11 61.8 152.92 61.85 152.68 61.9Q152.31 61.98 151.76 61.98C151.2 61.98 150.65 61.86 150.11 61.62C149.58 61.37 149.13 61 148.78 60.5C148.43 60 148.26 59.37 148.26 58.61L148.26 50.45L146.31 50.45L146.31 48.75L148.26 48.75L148.26 45.62ZM95.06 62.12C94.24 62.12 93.5 61.96 92.83 61.65C92.16 61.33 91.63 60.88 91.24 60.28Q91.23 60.26 91.22 60.25Q90.65 59.36 90.65 58.1C90.65 57.36 90.8 56.75 91.09 56.28C91.38 55.81 91.77 55.44 92.26 55.18C92.75 54.91 93.29 54.71 93.88 54.58C94.47 54.45 95.07 54.34 95.67 54.26C96.45 54.16 97.09 54.08 97.58 54.03C98.07 53.97 98.43 53.88 98.66 53.75C98.89 53.62 99 53.39 99 53.07L99 53C99 52.16 98.77 51.51 98.32 51.04Q98.31 51.03 98.3 51.02L98.3 51.02Q97.62 50.35 96.27 50.35Q94.85 50.35 94.04 50.98C93.51 51.4 93.13 51.84 92.91 52.32L91.02 51.64Q91.53 50.45 92.37 49.78Q93.02 49.27 93.76 48.99Q93.99 48.91 94.22 48.85Q95.23 48.58 96.21 48.58Q96.83 48.58 97.64 48.73Q97.66 48.73 97.68 48.74Q98.47 48.89 99.21 49.33Q99.98 49.79 100.48 50.72C100.82 51.34 100.99 52.17 100.99 53.2L100.99 61.81L99 61.81L99 60.04L98.9 60.04C98.77 60.33 98.54 60.63 98.23 60.95Q97.76 61.44 96.97 61.78Q96.19 62.12 95.06 62.12ZM113.77 51.67L111.99 52.18C111.87 51.88 111.71 51.59 111.49 51.31C111.28 51.02 110.98 50.78 110.61 50.59C110.24 50.41 109.77 50.31 109.19 50.31C108.4 50.31 107.74 50.5 107.21 50.87C106.69 51.23 106.43 51.69 106.43 52.25C106.43 52.75 106.61 53.14 106.97 53.43C107.33 53.72 107.89 53.96 108.65 54.16L110.57 54.63C111.73 54.92 112.59 55.35 113.16 55.94C113.72 56.51 114.01 57.26 114.01 58.17C114.01 58.92 113.79 59.59 113.37 60.18C112.94 60.77 112.36 61.23 111.6 61.58Q110.46 62.09 108.96 62.09C107.64 62.09 106.55 61.8 105.68 61.22C104.82 60.64 104.27 59.79 104.04 58.68L105.93 58.21C106.11 58.91 106.44 59.44 106.94 59.79C107.45 60.14 108.11 60.32 108.92 60.32C109.85 60.32 110.58 60.12 111.13 59.72C111.68 59.32 111.95 58.84 111.95 58.27C111.95 57.82 111.79 57.44 111.48 57.13C111.17 56.82 110.68 56.59 110.03 56.44L107.88 55.93C106.69 55.64 105.82 55.2 105.27 54.61Q105.01 54.33 104.84 54.01Q104.44 53.29 104.44 52.35C104.44 51.62 104.65 50.96 105.06 50.4C105.47 49.83 106.04 49.39 106.75 49.06Q107.83 48.58 109.19 48.58C110.47 48.58 111.47 48.86 112.2 49.43C112.94 49.99 113.46 50.74 113.77 51.67ZM126.15 51.67L124.37 52.18C124.26 51.88 124.09 51.59 123.87 51.31C123.66 51.02 123.37 50.78 123 50.59C122.63 50.41 122.15 50.31 121.57 50.31C120.78 50.31 120.12 50.5 119.6 50.87C119.07 51.23 118.81 51.69 118.81 52.25C118.81 52.75 118.99 53.14 119.35 53.43C119.71 53.72 120.27 53.96 121.03 54.16L122.95 54.63C124.11 54.92 124.97 55.35 125.54 55.94C126.1 56.51 126.39 57.26 126.39 58.17C126.39 58.92 126.17 59.59 125.75 60.18C125.33 60.77 124.74 61.23 123.98 61.58Q122.84 62.09 121.34 62.09C120.02 62.09 118.93 61.8 118.06 61.22C117.2 60.64 116.65 59.79 116.42 58.68L118.31 58.21C118.49 58.91 118.83 59.44 119.33 59.79Q120.08 60.32 121.3 60.32C122.23 60.32 122.96 60.12 123.51 59.72C124.06 59.32 124.33 58.84 124.33 58.27C124.33 57.82 124.18 57.44 123.86 57.13C123.55 56.82 123.07 56.59 122.41 56.44L120.26 55.93C119.08 55.64 118.21 55.2 117.65 54.61Q117.4 54.33 117.22 54.01Q116.83 53.29 116.83 52.35C116.83 51.62 117.03 50.96 117.44 50.4C117.86 49.83 118.42 49.39 119.13 49.06C119.85 48.74 120.66 48.58 121.57 48.58Q123.49 48.58 124.59 49.43C125.32 49.99 125.84 50.74 126.15 51.67ZM144.16 51.67L142.37 52.18C142.26 51.88 142.1 51.59 141.88 51.31C141.66 51.02 141.37 50.78 141 50.59Q140.45 50.31 139.58 50.31C138.79 50.31 138.13 50.5 137.6 50.87C137.08 51.23 136.82 51.69 136.82 52.25C136.82 52.75 137 53.14 137.36 53.43C137.72 53.72 138.28 53.96 139.04 54.16L140.96 54.63C142.12 54.92 142.98 55.35 143.54 55.94C144.11 56.51 144.39 57.26 144.39 58.17C144.39 58.92 144.18 59.59 143.75 60.18C143.33 60.77 142.74 61.23 141.99 61.58C141.23 61.92 140.35 62.09 139.34 62.09C138.02 62.09 136.93 61.8 136.07 61.22C135.21 60.64 134.66 59.79 134.43 58.68L136.31 58.21C136.49 58.91 136.83 59.44 137.33 59.79C137.84 60.14 138.5 60.32 139.31 60.32C140.24 60.32 140.97 60.12 141.51 59.72C142.06 59.32 142.34 58.84 142.34 58.27C142.34 57.82 142.18 57.44 141.87 57.13C141.55 56.82 141.07 56.59 140.42 56.44L138.27 55.93C137.08 55.64 136.21 55.2 135.66 54.61C135.11 54.01 134.83 53.26 134.83 52.35C134.83 51.62 135.04 50.96 135.45 50.4C135.86 49.83 136.42 49.39 137.14 49.06C137.86 48.74 138.67 48.58 139.58 48.58C140.86 48.58 141.86 48.86 142.59 49.43C143.33 49.99 143.85 50.74 144.16 51.67ZM159.8 62.12C158.98 62.12 158.23 61.96 157.57 61.65C156.9 61.33 156.37 60.88 155.98 60.28Q155.96 60.26 155.95 60.25Q155.39 59.36 155.39 58.1C155.39 57.36 155.53 56.75 155.82 56.28C156.12 55.81 156.5 55.44 156.99 55.18C157.48 54.91 158.02 54.71 158.61 54.58C159.2 54.45 159.8 54.34 160.4 54.26C161.19 54.16 161.82 54.08 162.31 54.03C162.81 53.97 163.17 53.88 163.39 53.75C163.62 53.62 163.73 53.39 163.73 53.07L163.73 53C163.73 52.16 163.51 51.51 163.05 51.04C162.6 50.58 161.92 50.35 161.01 50.35C160.06 50.35 159.32 50.56 158.78 50.98C158.24 51.4 157.86 51.84 157.64 52.32L155.76 51.64C156.09 50.85 156.54 50.23 157.1 49.78C157.67 49.34 158.29 49.03 158.95 48.85C159.63 48.67 160.29 48.58 160.94 48.58C161.36 48.58 161.83 48.63 162.37 48.73C162.92 48.83 163.44 49.03 163.95 49.33C164.46 49.64 164.88 50.1 165.22 50.72C165.55 51.34 165.72 52.17 165.72 53.2L165.72 61.81L163.73 61.81L163.73 60.04L163.63 60.04C163.5 60.33 163.27 60.63 162.96 60.95Q162.49 61.44 161.71 61.78C161.18 62.01 160.55 62.12 159.8 62.12ZM171.33 53.95L171.33 61.81L169.35 61.81L169.35 48.75L171.27 48.75L171.27 50.79L171.43 50.79C171.74 50.13 172.2 49.59 172.81 49.19C173.43 48.78 174.23 48.58 175.2 48.58C176.08 48.58 176.84 48.76 177.5 49.12C178.16 49.48 178.67 50.02 179.03 50.75C179.4 51.48 179.58 52.4 179.58 53.51L179.58 61.81L177.59 61.81L177.59 53.65C177.59 52.62 177.33 51.82 176.8 51.25Q176.6 51.02 176.35 50.85L176.35 50.85Q175.65 50.38 174.63 50.38C174 50.38 173.43 50.52 172.93 50.8C172.44 51.08 172.05 51.48 171.76 52.01C171.48 52.55 171.33 53.19 171.33 53.95ZM188.46 62.09C187.25 62.09 186.21 61.8 185.33 61.22C184.45 60.64 183.78 59.84 183.31 58.83C182.84 57.81 182.6 56.65 182.6 55.35C182.6 54.02 182.84 52.85 183.33 51.84C183.82 50.81 184.49 50.02 185.36 49.44C186.24 48.87 187.26 48.58 188.43 48.58C189.34 48.58 190.16 48.75 190.88 49.09C191.61 49.43 192.21 49.9 192.68 50.52C193.14 51.13 193.43 51.84 193.54 52.66L191.56 52.66Q191.52 52.52 191.47 52.38L191.47 52.38Q191.21 51.66 190.55 51.08C190.03 50.61 189.34 50.38 188.46 50.38C187.69 50.38 187.01 50.58 186.42 50.99C185.85 51.4 185.39 51.97 185.07 52.7C184.75 53.43 184.59 54.29 184.59 55.28C184.59 56.29 184.75 57.17 185.06 57.92C185.38 58.67 185.83 59.25 186.41 59.66C186.99 60.08 187.68 60.28 188.46 60.28C188.98 60.28 189.45 60.19 189.87 60.01C190.29 59.83 190.64 59.57 190.94 59.23C191.23 58.89 191.43 58.48 191.56 58L193.54 58C193.43 58.77 193.15 59.47 192.71 60.09C192.27 60.7 191.69 61.19 190.97 61.55Q189.89 62.09 188.46 62.09ZM201.87 62.09C200.62 62.09 199.55 61.81 198.64 61.25C197.75 60.69 197.05 59.91 196.57 58.9C196.08 57.89 195.84 56.72 195.84 55.38C195.84 54.04 196.08 52.86 196.57 51.84C197.05 50.82 197.73 50.02 198.6 49.44Q198.85 49.28 199.11 49.15Q200.25 48.58 201.67 48.58Q201.89 48.58 202.1 48.59L202.11 48.59Q202.89 48.65 203.66 48.92C204.32 49.14 204.91 49.51 205.45 50.02C205.99 50.53 206.42 51.2 206.74 52.03C207.06 52.86 207.22 53.89 207.22 55.11L207.22 55.96L197.83 55.96C197.86 56.83 198.03 57.58 198.33 58.2C198.68 58.88 199.15 59.4 199.76 59.75C200.36 60.11 201.07 60.28 201.87 60.28C202.39 60.28 202.86 60.21 203.28 60.06C203.71 59.91 204.08 59.68 204.38 59.38C204.69 59.07 204.93 58.69 205.1 58.24L207.02 58.78C206.82 59.44 206.48 60.02 206 60.52C205.52 61.01 204.93 61.4 204.23 61.68C203.53 61.95 202.74 62.09 201.87 62.09ZM129.38 61.81L129.38 48.75L131.36 48.75L131.36 61.81L129.38 61.81ZM197.84 54.23L205.2 54.23C205.2 53.49 205.05 52.83 204.76 52.25C204.48 51.67 204.07 51.22 203.53 50.88C203.01 50.55 202.38 50.38 201.67 50.38Q200.68 50.38 199.91 50.79L199.91 50.79Q199.76 50.88 199.61 50.98C199.04 51.37 198.6 51.88 198.29 52.51C198.03 53.05 197.88 53.62 197.84 54.23ZM95.37 60.32C96.15 60.32 96.81 60.16 97.35 59.85C97.9 59.54 98.31 59.13 98.58 58.64Q98.86 58.15 98.95 57.63Q99 57.36 99 57.08L99 55.25C98.92 55.35 98.73 55.44 98.45 55.53C98.17 55.61 97.84 55.68 97.47 55.74C97.1 55.8 96.75 55.85 96.4 55.89C96.06 55.93 95.78 55.97 95.57 55.99C95.05 56.06 94.57 56.17 94.12 56.33C93.68 56.47 93.32 56.7 93.04 57Q93.01 57.03 92.98 57.07L92.98 57.07Q92.64 57.5 92.64 58.21C92.64 58.9 92.89 59.43 93.4 59.79Q94.18 60.32 95.37 60.32ZM160.1 60.32C160.88 60.32 161.55 60.16 162.09 59.85C162.63 59.54 163.04 59.13 163.31 58.64C163.59 58.15 163.73 57.63 163.73 57.08L163.73 55.25C163.65 55.35 163.47 55.44 163.18 55.53C162.9 55.61 162.57 55.68 162.2 55.74C161.84 55.8 161.48 55.85 161.13 55.89C160.79 55.93 160.51 55.97 160.3 55.99C159.78 56.06 159.3 56.17 158.85 56.33C158.41 56.47 158.05 56.7 157.78 57C157.51 57.29 157.37 57.7 157.37 58.21C157.37 58.9 157.63 59.43 158.14 59.79Q158.91 60.32 160.1 60.32Z" fill="#47CFA9" fill-opacity="1.000000" fill-rule="evenodd"/>
	<path id="Driving" d="M133.46 12.63C132.75 12.63 132.13 12.39 131.61 11.91C131.1 11.42 130.84 10.84 130.84 10.15C130.84 9.46 131.1 8.88 131.61 8.4C132.13 7.91 132.75 7.67 133.46 7.67C134.19 7.67 134.8 7.91 135.31 8.4C135.83 8.88 136.08 9.46 136.08 10.15C136.08 10.84 135.83 11.42 135.31 11.91C134.8 12.39 134.19 12.63 133.46 12.63ZM162.89 12.63C162.18 12.63 161.56 12.39 161.05 11.91C160.53 11.42 160.27 10.84 160.27 10.15C160.27 9.46 160.53 8.88 161.05 8.4C161.56 7.91 162.18 7.67 162.89 7.67C163.62 7.67 164.23 7.91 164.74 8.4Q165.15 8.78 165.35 9.26Q165.52 9.67 165.52 10.15Q165.52 10.6 165.37 10.99Q165.18 11.49 164.74 11.91C164.23 12.39 163.62 12.63 162.89 12.63ZM100.63 34.77L91.96 34.77L91.96 8.92L100.81 8.92Q104.61 8.92 107.35 10.47C109.18 11.5 110.59 12.97 111.57 14.9C112.55 16.83 113.04 19.13 113.04 21.82Q113.04 25.86 111.56 28.76Q110.73 30.39 109.49 31.59Q108.52 32.53 107.3 33.22Q104.53 34.77 100.63 34.77ZM96.6 30.72L100.41 30.72C102.19 30.72 103.67 30.39 104.86 29.73C106.05 29.07 106.95 28.08 107.55 26.77C108.15 25.44 108.45 23.79 108.45 21.82C108.45 19.84 108.15 18.2 107.55 16.89C106.95 15.58 106.06 14.6 104.89 13.95Q103.14 12.97 100.54 12.97L96.6 12.97L96.6 30.72ZM117.25 34.77L117.25 15.38L121.63 15.38L121.63 18.61L121.83 18.61C122.18 17.49 122.78 16.63 123.63 16.02C124.49 15.41 125.46 15.1 126.56 15.1C126.81 15.1 127.09 15.11 127.4 15.14C127.72 15.16 127.98 15.19 128.19 15.23L128.19 19.43C127.99 19.36 127.69 19.31 127.27 19.25C126.87 19.2 126.47 19.17 126.09 19.17C125.26 19.17 124.52 19.35 123.86 19.71C123.22 20.06 122.7 20.55 122.33 21.19C121.95 21.82 121.77 22.54 121.77 23.37L121.77 34.77L117.25 34.77ZM174.31 23.41L174.31 34.77L169.79 34.77L169.79 15.38L174.11 15.38L174.11 18.67L174.34 18.67C174.78 17.59 175.48 16.73 176.45 16.09C177.42 15.45 178.62 15.13 180.06 15.13Q182.04 15.13 183.51 15.99C184.51 16.56 185.27 17.39 185.81 18.47Q186.62 20.08 186.62 22.35Q186.62 22.39 186.62 22.42L186.62 34.77L182.1 34.77L182.1 23.13C182.1 21.83 181.77 20.82 181.1 20.09Q180.85 19.81 180.55 19.6Q179.67 18.99 178.37 18.99C177.58 18.99 176.87 19.17 176.26 19.52C175.65 19.86 175.17 20.37 174.82 21.02Q174.31 22.01 174.31 23.41ZM199.56 42.44C197.94 42.44 196.54 42.22 195.38 41.77C194.21 41.34 193.28 40.75 192.57 40.01C191.86 39.27 191.37 38.45 191.09 37.54L195.17 36.55C195.35 36.93 195.62 37.3 195.97 37.67C196.31 38.05 196.79 38.36 197.38 38.61C197.98 38.86 198.73 38.98 199.64 38.98C200.92 38.98 201.98 38.67 202.82 38.04C203.66 37.41 204.08 36.39 204.08 34.96L204.08 31.28L203.86 31.28C203.62 31.76 203.28 32.24 202.83 32.74C202.39 33.23 201.81 33.65 201.07 33.99C200.35 34.32 199.44 34.49 198.34 34.49Q196.75 34.49 195.37 33.95L195.37 33.95Q194.83 33.74 194.33 33.44C193.14 32.74 192.19 31.68 191.48 30.29C190.78 28.88 190.43 27.12 190.43 25.01C190.43 22.88 190.78 21.08 191.48 19.62C192.19 18.15 193.14 17.03 194.34 16.28C195.54 15.51 196.88 15.13 198.35 15.13C199.47 15.13 200.4 15.32 201.12 15.71C201.86 16.09 202.44 16.54 202.87 17.08C203.3 17.61 203.63 18.11 203.86 18.59L204.11 18.59L204.11 15.38L208.57 15.38L208.57 35.08C208.57 36.74 208.17 38.11 207.39 39.2C206.61 40.28 205.54 41.1 204.18 41.63C202.83 42.17 201.29 42.44 199.56 42.44ZM131.19 34.77L131.19 15.38L135.71 15.38L135.71 34.77L131.19 34.77ZM157.49 15.38L150.66 34.77L145.67 34.77L138.83 15.38L143.66 15.38L148.06 29.78L148.26 29.78L152.68 15.38L157.49 15.38ZM160.62 34.77L160.62 15.38L165.14 15.38L165.14 34.77L160.62 34.77ZM199.6 30.91C200.56 30.91 201.37 30.67 202.05 30.2C202.72 29.73 203.23 29.05 203.58 28.17C203.93 27.28 204.11 26.22 204.11 24.99C204.11 23.77 203.93 22.7 203.58 21.78C203.24 20.86 202.73 20.15 202.06 19.65C201.39 19.13 200.57 18.88 199.6 18.88C198.59 18.88 197.75 19.14 197.08 19.67C196.4 20.2 195.89 20.93 195.55 21.85C195.21 22.77 195.04 23.82 195.04 24.99C195.04 26.17 195.21 27.21 195.55 28.1C195.9 28.99 196.41 29.68 197.09 30.17C197.77 30.66 198.61 30.91 199.6 30.91Z" fill="#131313" fill-opacity="1.000000" fill-rule="evenodd"/>
</svg>
